{
  "accessors": [
    {
      "bufferView": 2,
      "componentType": 5126,
      "count": 5537,
      "max": [
        0.072902694344520569,
        0.026902597397565842,
        0.072160288691520691
      ],
      "min": [
        -0.07361234724521637,
        -0.024555135518312454,
        -0.075158365070819855
      ],
      "type": "VEC3"
    },
    {
      "bufferView": 2,
      "byteOffset": 66444,
      "componentType": 5126,
      "count": 5537,
      "max": [
        0.99956178665161133,
        0.99999690055847168,
        0.99999761581420898
      ],
      "min": [
        -0.99999642372131348,
        -0.9999997615814209,
        -0.99965143203735352
      ],
      "type": "VEC3"
    },
    {
      "bufferView": 1,
      "componentType": 5126,
      "count": 5537,
      "max": [
        1.0000002384185791,
        1.0000002384185791
      ],
      "min": [
        -2.2204465786459051e-16,
        2.2204465786459051e-16
      ],
      "type": "VEC2"
    },
    {
      "bufferView": 0,
      "componentType": 5125,
      "count": 32256,
      "max": [
        5536
      ],
      "min": [
        0
      ],
      "type": "SCALAR"
    },
    {
      "bufferView": 2,
      "byteOffset": 132888,
      "componentType": 5126,
      "count": 65532,
      "max": [
        0.07305087149143219,
        0.062599919736385345,
        0.072001539170742035
      ],
      "min": [
        -0.071665041148662567,
        -0.007123907096683979,
        -0.095297038555145264
      ],
      "type": "VEC3"
    },
    {
      "bufferView": 2,
      "byteOffset": 919272,
      "componentType": 5126,
      "count": 65532,
      "max": [
        0.99939048290252686,
        0.99999940395355225,
        0.99945354461669922
      ],
      "min": [
        -0.99991130828857422,
        -0.99998211860656738,
        -0.99991428852081299
      ],
      "type": "VEC3"
    },
    {
      "bufferView": 1,
      "byteOffset": 44296,
      "componentType": 5126,
      "count": 65532,
      "max": [
        1.0000001192092896,
        0.91666680574417114
      ],
      "min": [
        -2.2204463139481091e-16,
        0.58333331346511841
      ],
      "type": "VEC2"
    },
    {
      "bufferView": 0,
      "byteOffset": 129024,
      "componentType": 5125,
      "count": 381063,
      "max": [
        65531
      ],
      "min": [
        0
      ],
      "type": "SCALAR"
    },
    {
      "bufferView": 2,
      "byteOffset": 1705656,
      "componentType": 5126,
      "count": 3676,
      "max": [
        0.064874857664108276,
        0.014079874381422997,
        0.072001539170742035
      ],
      "min": [
        -0.071640528738498688,
        -0.007123907096683979,
        -0.075815156102180481
      ],
      "type": "VEC3"
    },
    {
      "bufferView": 2,
      "byteOffset": 1749768,
      "componentType": 5126,
      "count": 3676,
      "max": [
        0.99714106321334839,
        0.45177540183067322,
        0.99920272827148438
      ],
      "min": [
        -0.99985015392303467,
        -0.99980175495147705,
        -0.99973678588867188
      ],
      "type": "VEC3"
    },
    {
      "bufferView": 1,
      "byteOffset": 568552,
      "componentType": 5126,
      "count": 3676,
      "max": [
        0.97767871618270874,
        0.59027791023254395
      ],
      "min": [
        -2.2204463139481091e-16,
        0.58333331346511841
      ],
      "type": "VEC2"
    },
    {
      "bufferView": 0,
      "byteOffset": 1653276,
      "componentType": 5125,
      "count": 14601,
      "max": [
        3675
      ],
      "min": [
        0
      ],
      "type": "SCALAR"
    },
    {
      "bufferView": 2,
      "byteOffset": 1793880,
      "componentType": 5126,
      "count": 1538,
      "max": [
        1.3098336458206177,
        1.1443271636962891,
        1.1076171398162842
      ],
      "min": [
        -1.3481138944625854,
        0.77894687652587891,
        0.37359702587127686
      ],
      "type": "VEC3"
    },
    {
      "bufferView": 2,
      "byteOffset": 1812336,
      "componentType": 5126,
      "count": 1538,
      "max": [
        0.85227733850479126,
        0.99747747182846069,
        0.9294319748878479
      ],
      "min": [
        -0.81801503896713257,
        -0.99745368957519531,
        -0.83018863201141357
      ],
      "type": "VEC3"
    },
    {
      "bufferView": 1,
      "byteOffset": 597960,
      "componentType": 5126,
      "count": 1538,
      "max": [
        0.9746209979057312,
        0.47472143173217773
      ],
      "min": [
        0,
        0
      ],
      "type": "VEC2"
    },
    {
      "bufferView": 0,
      "byteOffset": 1711680,
      "componentType": 5125,
      "count": 7248,
      "max": [
        1537
      ],
      "min": [
        0
      ],
      "type": "SCALAR"
    },
    {
      "bufferView": 2,
      "byteOffset": 1830792,
      "componentType": 5126,
      "count": 1194,
      "max": [
        1.8091739416122437,
        1.1673355102539062,
        0.51070576906204224
      ],
      "min": [
        -1.8756043910980225,
        0.77196365594863892,
        0.11241425573825836
      ],
      "type": "VEC3"
    },
    {
      "bufferView": 2,
      "byteOffset": 1845120,
      "componentType": 5126,
      "count": 1194,
      "max": [
        0.9027819037437439,
        0.99890905618667603,
        0.81784343719482422
      ],
      "min": [
        -0.85625767707824707,
        -0.99890631437301636,
        -0.80185192823410034
      ],
      "type": "VEC3"
    },
    {
      "bufferView": 1,
      "byteOffset": 610264,
      "componentType": 5126,
      "count": 1194,
      "max": [
        0.97462087869644165,
        0.47472143173217773
      ],
      "min": [
        0.52537918090820312,
        0.025278644636273384
      ],
      "type": "VEC2"
    },
    {
      "bufferView": 0,
      "byteOffset": 1740672,
      "componentType": 5125,
      "count": 5280,
      "max": [
        1193
      ],
      "min": [
        0
      ],
      "type": "SCALAR"
    },
    {
      "bufferView": 3,
      "componentType": 5126,
      "count": 61,
      "max": [
        2.5
      ],
      "min": [
        0
      ],
      "type": "SCALAR"
    },
    {
      "bufferView": 4,
      "componentType": 5126,
      "count": 61,
      "max": [
        0,
        0.99814391136169434,
        -0,
        0.99999552965164185
      ],
      "min": [
        0,
        -0.99993437528610229,
        -0,
        0.011455816216766834
      ],
      "type": "VEC4"
    },
    {
      "bufferView": 3,
      "byteOffset": 244,
      "componentType": 5126,
      "count": 61,
      "max": [
        2.5
      ],
      "min": [
        0
      ],
      "type": "SCALAR"
    },
    {
      "bufferView": 4,
      "byteOffset": 976,
      "componentType": 5126,
      "count": 61,
      "max": [
        0,
        0.99814391136169434,
        -0,
        0.99999552965164185
      ],
      "min": [
        0,
        -0.99993437528610229,
        -0,
        0.011457012034952641
      ],
      "type": "VEC4"
    }
  ],
  "animations": [
    {
      "channels": [
        {
          "sampler": 0,
          "target": {
            "node": 4,
            "path": "rotation"
          }
        }
      ],
      "name": "Action",
      "samplers": [
        {
          "input": 20,
          "interpolation": "LINEAR",
          "output": 21
        }
      ]
    },
    {
      "channels": [
        {
          "sampler": 0,
          "target": {
            "node": 4,
            "path": "rotation"
          }
        }
      ],
      "name": "donutAction",
      "samplers": [
        {
          "input": 22,
          "interpolation": "LINEAR",
          "output": 23
        }
      ]
    }
  ],
  "asset": {
    "extras": {
      "author": "Cresis (https://sketchfab.com/Cresis)",
      "license": "CC-BY-4.0 (http://creativecommons.org/licenses/by/4.0/)",
      "source": "https://sketchfab.com/3d-models/donut-cat-3800caad4695418f9f60bfca87a85304",
      "title": "Donut Cat!"
    },
    "generator": "Sketchfab-8.22.0",
    "version": "2.0"
  },
  "bufferViews": [
    {
      "buffer": 0,
      "byteLength": 1761792,
      "byteOffset": 0,
      "name": "floatBufferViews",
      "target": 34963
    },
    {
      "buffer": 0,
      "byteLength": 619816,
      "byteOffset": 1761792,
      "byteStride": 8,
      "name": "floatBufferViews",
      "target": 34962
    },
    {
      "buffer": 0,
      "byteLength": 1859448,
      "byteOffset": 2381608,
      "byteStride": 12,
      "name": "floatBufferViews",
      "target": 34962
    },
    {
      "buffer": 0,
      "byteLength": 488,
      "byteOffset": 4241056,
      "name": "floatBufferViews"
    },
    {
      "buffer": 0,
      "byteLength": 1952,
      "byteOffset": 4241544,
      "byteStride": 16,
      "name": "floatBufferViews"
    }
  ],
  "buffers": [
    {
      "byteLength": 4243496,
      "uri": "scene.bin"
    }
  ],
  "materials": [
    {
      "doubleSided": true,
      "name": "Material.003",
      "pbrMetallicRoughness": {
        "baseColorFactor": [
          1,
          0.86289149805217114,
          0.45941442845319658,
          1
        ],
        "metallicFactor": 0,
        "roughnessFactor": 0.5
      }
    },
    {
      "doubleSided": true,
      "emissiveFactor": [
        0,
        0,
        0
      ],
      "name": "Material.004",
      "pbrMetallicRoughness": {
        "baseColorFactor": [
          0.816276,
          0.19082299999999999,
          0.186808,
          1
        ],
        "metallicFactor": 0,
        "roughnessFactor": 0.20000000000000001
      }
    },
    {
      "doubleSided": true,
      "emissiveFactor": [
        0,
        0,
        0
      ],
      "name": "Material.002",
      "pbrMetallicRoughness": {
        "baseColorFactor": [
          0.083990499999999996,
          0.083990499999999996,
          0.083990499999999996,
          1
        ],
        "metallicFactor": 0,
        "roughnessFactor": 0.5
      }
    },
    {
      "doubleSided": true,
      "emissiveFactor": [
        0,
        0,
        0
      ],
      "name": "Material.005",
      "pbrMetallicRoughness": {
        "baseColorFactor": [
          1,
          0.15091099999999999,
          0.19692999999999999,
          1
        ],
        "metallicFactor": 0,
        "roughnessFactor": 0
      }
    }
  ],
  "meshes": [
    {
      "primitives": [
        {
          "attributes": {
            "NORMAL": 1,
            "POSITION": 0,
            "TEXCOORD_0": 2
          },
          "indices": 3,
          "material": 0,
          "mode": 4
        }
      ]
    },
    {
      "primitives": [
        {
          "attributes": {
            "NORMAL": 5,
            "POSITION": 4,
            "TEXCOORD_0": 6
          },
          "indices": 7,
          "material": 1,
          "mode": 4
        }
      ]
    },
    {
      "primitives": [
        {
          "attributes": {
            "NORMAL": 9,
            "POSITION": 8,
            "TEXCOORD_0": 10
          },
          "indices": 11,
          "material": 1,
          "mode": 4
        }
      ]
    },
    {
      "primitives": [
        {
          "attributes": {
            "NORMAL": 13,
            "POSITION": 12,
            "TEXCOORD_0": 14
          },
          "indices": 15,
          "material": 2,
          "mode": 4
        }
      ]
    },
    {
      "primitives": [
        {
          "attributes": {
            "NORMAL": 17,
            "POSITION": 16,
            "TEXCOORD_0": 18
          },
          "indices": 19,
          "material": 3,
          "mode": 4
        }
      ]
    }
  ],
  "nodes": [
    {
      "children": [
        1
      ],
      "name": "RootNode (gltf orientation matrix)",
      "rotation": [
        -0.70710678118654746,
        -0,
        -0,
        0.70710678118654757
      ]
    },
    {
      "children": [
        2
      ],
      "matrix": [
        1.2559770345687866,
        0,
        0,
        0,
        0,
        1.2559770345687866,
        2.0197650832054276e-16,
        0,
        0,
        -2.0197650832054276e-16,
        1.2559770345687866,
        0,
        -0.000379329634597525,
        -4.6680645027663559e-05,
        0,
        1
      ],
      "name": "RootNode (model correction matrix)"
    },
    {
      "children": [
        3
      ],
      "name": "root"
    },
    {
      "children": [
        4
      ],
      "matrix": [
        1,
        0,
        0,
        0,
        0,
        2.2204460492503131e-16,
        1,
        0,
        0,
        -1,
        2.2204460492503131e-16,
        0,
        0,
        0,
        0,
        1
      ],
      "name": "GLTF_SceneRootNode"
    },
    {
      "children": [
        5,
        6,
        9
      ],
      "name": "donut_2",
      "rotation": [
        0,
        -0.68964684009552002,
        0,
        0.72414588928222656
      ],
      "translation": [
        0,
        0.024383589625358582,
        0
      ]
    },
    {
      "mesh": 0,
      "name": ""
    },
    {
      "children": [
        7,
        8
      ],
      "name": "polewka_0"
    },
    {
      "mesh": 1,
      "name": ""
    },
    {
      "mesh": 2,
      "name": ""
    },
    {
      "children": [
        10,
        11
      ],
      "matrix": [
        -0.012123341672122478,
        0,
        -0,
        -0,
        0,
        2.0438426146141314e-09,
        -0.012123341672122307,
        -0,
        0,
        0.012123341672122307,
        2.0438426146141314e-09,
        -0,
        -0.0025450834073126316,
        -0.0052362866699695587,
        0.081908471882343292,
        1
      ],
      "name": "twarz_1"
    },
    {
      "mesh": 3,
      "name": ""
    },
    {
      "mesh": 4,
      "name": ""
    }
  ],
  "scene": 0,
  "scenes": [
    {
      "name": "OSG_Scene",
      "nodes": [
        0
      ]
    }
  ]
}

